PathFileType	4	(X/Y/Z)	C:/Users/beibeiliu/ov580/test_trc\sequence.2_training_dense_right.trc
DataRate	CameraRate	NumFrames	NumMarkers	Units	OrigDataRate	OrigDataStartFrame	OrigNumFrames
120	120	10	19	mm	120	157	313
Frame#	Time	ThumbCMC			ThumbMCP			ThumbIP			ThumbTip			IndexMCP			IndexPIP			IndexTip			MiddleMCP			MiddlePIP			MiddleTip			RingMCP			RingPIP			RingTip			PinkyMCP			PinkyPIP			PinkyTip			BackHand1			BackHand2			BackHand3	
		X0	Y0	Z0	X1	Y1	Z1	X2	Y2	Z2	X3	Y3	Z3	X4	Y4	Z4	X5	Y5	Z5	X6	Y6	Z6	X7	Y7	Z7	X8	Y8	Z8	X9	Y9	Z9	X10	Y10	Z10	X11	Y11	Z11	X12	Y12	Z12	X13	Y13	Z13	X14	Y14	Z14	X15	Y15	Z15	X16	Y16	Z16	X17	Y17	Z17	X18	Y18	Z18	
156	1.3	194.166	-31.3832	7.33919	199.894	-1.61681	10.729	195.625	23.3753	7.49235	186.468	43.7852	6.98831	177.508	12.7121	-34.0647	180.796	33.2199	-12.9118	182.699	19.3033	9.69928	156.732	18.329	-25.1873	167.251	38.2795	-9.36811	173.806	26.408	24.2896	147.051	19.1857	-10.4175	162.412	26.1697	12.1367	172.933	6.6865	26.2967	134.739	9.8499	6.25983	155.985	11.9299	18.1786	168.188	-13.2722	21.9349	139.556	-31.0688	-8.8944	147.05	-53.514	10.6919	165.779	-47.0841	-9.98481	
157	1.30833	197.665	-30.1497	8.33033	200.848	5.29434	5.15195	197.343	29.1404	1.63169	184.539	47.2603	1.67351	177.868	9.91824	-36.3229	185.488	33.9353	-19.4566	185.61	19.5531	8.20617	161.362	20.6571	-29.2454	167.78	39.4674	-7.43222	175.873	27.3134	20.8262	144.613	18.3092	-12.3584	161.06	30.3767	5.31794	171.181	12.4572	25.3621	135.844	12.6418	2.65945	156.938	15.6308	15.0925	168.345	-5.72126	20.6983	141.978	-34.0985	-7.36265	149.264	-54.3283	8.96116	171.628	-44.8668	-10.5303	
158	1.31667	197.281	-24.9702	4.4595	204.91	4.45771	6.54358	198.569	29.4062	1.25587	187.26	51.7594	-0.0902445	179.223	12.6559	-39.4441	187.574	34.0297	-25.0228	186.567	23.5961	5.33954	160.292	17.8365	-31.8827	169.234	41.4316	-14.7815	176.635	31.7379	15.931	148.297	19.1536	-16.5485	163.187	31.7942	1.01308	177.53	12.5794	20.6341	137.508	14.9992	1.0285	160.799	16.8966	13.7257	168.557	-4.18334	21.9981	142.587	-29.215	-10.7653	151.469	-48.6967	8.93159	173.307	-43.0161	-10.9777	
159	1.325	200.529	-27.9104	6.53731	201.92	4.97342	4.91488	199.959	26.782	1.9046	183.958	50.4149	0.415321	182.355	12.232	-40.4101	187.439	33.7685	-27.8779	194.409	24.8389	2.68961	163.231	15.5954	-34.454	172.098	43.9235	-16.0815	179.822	39.7262	9.35719	152.491	18.2111	-17.978	167.663	33.8578	1.03557	177.676	18.2885	19.9288	141.794	13.9606	-2.03149	161.961	19.4387	15.438	172.78	-3.13333	16.9787	142.976	-29.8916	-5.55597	147.6	-46.3187	11.6316	168.024	-42.2411	-10.5539	
160	1.33333	196.371	-25.9994	4.37306	207.272	7.22849	4.11841	197.148	30.7868	0.49218	176.684	48.032	0.777747	183.249	10.8664	-40.8802	188.951	33.9161	-28.3023	197.628	27.7681	3.51397	166.498	19.8183	-35.2267	177.037	44.837	-22.5677	185.198	49.9537	2.50763	155.321	23.0988	-18.5527	171.433	33.7776	-0.98154	180.806	15.7797	19.2928	144.109	18.1065	0.00996665	163.352	21.6202	11.309	172.876	0.388773	19.7321	145.579	-30.0757	-5.93645	147.524	-45.2972	10.9357	172.852	-43.4213	-9.01373	
161	1.34167	199.594	-26.9981	6.8654	204.767	9.26564	2.43735	191.59	32.7628	-3.18473	175.475	45.1801	-0.447757	182.442	11.1852	-40.263	188.051	36.1236	-26.6156	199.696	32.1416	3.14425	167.536	20.6455	-35.174	171.39	44.1061	-23.6316	188.925	53.9736	-0.464404	154.547	22.3596	-17.3005	170.784	35.0136	0.963051	180.496	20.1312	18.472	145.729	18.9306	-0.778594	161.84	23.3629	15.1627	172.766	1.33905	22.3085	147.985	-27.4059	-9.51834	150.998	-48.5832	13.2763	173.148	-44.2692	-8.84201	
162	1.35	198.989	-24.1843	4.96888	205.617	10.8714	1.82922	192.339	31.2198	-2.57992	173.446	44.9567	-0.639655	181.054	12.3904	-37.5977	186.835	38.2212	-25.6867	201.405	38.4622	-1.2278	165.118	22.8045	-33.4038	174.448	46.9277	-24.2421	189.738	55.8392	4.17278	156.374	24.3876	-17.431	171.238	36.8895	-0.296256	181.155	16.4943	19.2154	140.761	19.9101	0.330099	163.026	25.0041	14.1994	172.808	1.20758	20.4212	144.217	-23.7063	-8.20405	148.651	-45.7287	12.1163	174.739	-38.62	-10.911	
163	1.35833	201.762	-24.1169	7.93101	202.666	12.0869	1.35174	188.154	32.5248	-2.06537	170.92	46.3031	-0.0524733	184.985	19.0112	-37.8572	188.72	39.6299	-23.9599	198.536	38.7923	5.86463	166.263	21.7826	-34.0594	170.621	48.5192	-21.2745	186.554	56.257	1.83876	153.221	25.9408	-16.1211	167.551	38.028	4.3233	177.449	20.5735	21.3154	143.206	21.0949	0.252798	162.739	25.468	13.651	174.108	0.992101	21.1467	147.025	-25.7867	-8.14338	149.686	-44.4759	9.92656	174.348	-39.5661	-6.27865	
164	1.36667	198.987	-21.9313	8.54287	204.132	13.0462	4.00394	188.464	35.1933	-1.659	172.979	45.7752	1.50452	180.526	17.8811	-36.896	191.549	42.4212	-22.2308	199.573	40.4124	2.20636	166.659	25.2278	-32.7838	173.988	49.6084	-20.7941	185.913	57.3443	7.47981	154.092	27.3097	-15.4435	167.884	38.0281	4.71257	178.433	18.3247	22.3983	141.896	21.8716	0.147555	159.229	27.379	18.0452	173.518	1.1503	22.3246	145.013	-24.6951	-7.298	150.167	-44.8878	14.8089	174.619	-38.122	-5.17565	
165	1.375	200.504	-21.7626	9.99973	206.338	15.0799	6.24979	191.695	39.7938	0.431167	174.085	50.2552	2.59315	184.826	17.5355	-37.8041	191.038	44.2007	-22.8872	200.2	40.0135	1.71077	162.28	23.6799	-30.887	172.017	51.8511	-17.7425	183.682	56.4747	9.37194	151.918	27.9383	-14.7516	168.936	39.6898	0.482999	177.613	21.7328	22.864	147.587	23.9967	-0.621569	162.163	28.2214	13.6623	173.959	3.45123	23.3522	149.314	-25.8158	-5.84496	151.1	-41.0174	13.1352	175.873	-35.8959	-5.97783	
